<svg xmlns="http://www.w3.org/2000/svg">
  <defs>
    <style>
      :root svg:not(:target) {
        display: none;
      }
    </style>
  </defs>
  <svg id="menu-open" viewBox="0 0 20 14" fill="#231f20">
    <path d="M20 0H0V2H20V0Z"/>
    <path d="M20 6H0V8H20V6Z"/>
    <path d="M20 12H0V14H20V12Z"/>
  </svg>
  <svg id="menu-close" viewBox="0 0 21 20" fill="#000000">
    <path d="M21 1.36585L19.5659 0L10.5512 8.58537L1.43415 0L0 1.36585L9.01463 10.0488L0 18.6341L1.43415 20L10.5512 11.4146L19.5659 20L21 18.6341L11.9854 10.0488L21 1.36585Z"/>
  </svg>
  <svg id="magnifier" viewBox="0 0 18 18">
    <path d="M17.6932 16.0568L14.2159 12.5795C15.2386 11.25 15.75 9.61364 15.75 7.875C15.75 3.47727 12.2727 0 7.875 0C3.47727 0 0 3.47727 0 7.875C0 12.2727 3.47727 15.75 7.875 15.75C9.61364 15.75 11.25 15.1364 12.5795 14.2159L16.0568 17.6932C16.2614 17.8977 16.4659 18 16.875 18C17.4886 18 18 17.4886 18 16.875C18 16.6705 17.8977 16.3636 17.6932 16.0568ZM2.25 7.875C2.25 4.80682 4.80682 2.25 7.875 2.25C10.9432 2.25 13.5 4.80682 13.5 7.875C13.5 10.9432 10.9432 13.5 7.875 13.5C4.80682 13.5 2.25 10.9432 2.25 7.875Z"/>
  </svg>
  <svg id="cart" viewBox="0 0 21 18">
    <path d="M20.1884 6.85716H16.6377L13.1884 0.380944C12.9855 -8.61287e-06 12.5797 -0.0952351 12.1739 0.0952412C11.7681 0.285717 11.6667 0.66667 11.8696 1.04762L15.0145 6.85716H5.7826L8.92753 1.04762C9.13043 0.66667 8.92754 0.285717 8.6232 0.0952412C8.2174 -0.0952351 7.8116 0.0952295 7.6087 0.380944L4.1594 6.85716H0.811583C0.405785 6.85716 0 7.14286 0 7.61905C0 8 0.304336 8.38094 0.811583 8.38094H1.01449L1.92753 11.2381C1.72463 11.3333 1.62317 11.5238 1.62317 11.8095C1.62317 12.1905 1.92753 12.4762 2.33332 12.4762L4.05797 18H16.942L18.6667 12.4762C19.0725 12.4762 19.3768 12.1905 19.3768 11.8095C19.3768 11.619 19.2754 11.3333 19.0725 11.2381L19.9855 8.38094H20.1884C20.5942 8.38094 21 8.09524 21 7.61905C21 7.14286 20.5942 6.85716 20.1884 6.85716ZM15.6232 16.4762H5.07247L3.85506 12.381H16.942L15.6232 16.4762ZM17.2464 10.9524H3.34782L2.53623 8.28573H18.058L17.2464 10.9524Z"/>
  </svg>
  <svg id="lamp" viewBox="0 0 40 62" fill="#149080">
    <path d="M15.162 37.7167C14.8627 38.7119 14.9625 39.9061 15.162 41.2994C15.6607 43.8869 16.8577 47.2705 17.556 50.9527H22.6433C23.3415 47.3701 24.5385 43.9864 25.137 41.2994C25.4363 39.9061 25.4363 38.6124 25.137 37.7167C24.8378 36.821 24.2393 36.1244 23.142 35.4277H17.157C15.96 36.1244 15.3615 36.821 15.162 37.7167Z"/>
    <path d="M26.9327 57.6211H13.1671C11.8703 57.6211 10.8728 58.6163 10.8728 59.8105V61.9999H13.1671H26.9327H29.2269V59.8105C29.2269 58.6163 28.2294 57.6211 26.9327 57.6211Z"/>
    <path d="M34.015 2.18943H22.3441C22.3441 0.995194 21.3466 0 20.0499 0C18.7531 0 17.7556 0.995194 17.7556 2.18943H6.08478L0 27.5668C0.798005 27.0693 1.59602 26.5717 2.59352 26.5717C3.99003 26.5717 4.78803 27.3678 5.48629 27.9649C6.18454 28.562 6.68329 28.7611 6.88279 28.7611C7.18204 28.7611 7.68079 28.4625 8.37905 27.9649C9.0773 27.4673 9.97505 26.5717 11.2718 26.5717C12.5686 26.5717 13.4663 27.3678 14.1646 27.9649C14.8628 28.4625 15.3616 28.7611 15.6608 28.7611C15.7606 28.7611 15.9601 28.6616 16.2593 28.562C16.4588 28.4625 16.7581 28.164 17.1571 27.9649C17.6559 27.5668 18.2544 26.9697 19.1521 26.7707C19.4514 26.6712 19.7506 26.6712 20.0499 26.6712C21.3466 26.6712 22.2444 27.4673 22.9426 28.0644C23.6409 28.562 24.1397 28.8606 24.4389 28.8606C24.7382 28.8606 25.2369 28.562 25.8354 28.0644C26.5337 27.4673 27.4314 26.6712 28.7282 26.6712C30.1247 26.6712 30.9227 27.4673 31.621 28.0644C31.9202 28.363 32.2194 28.562 32.5187 28.6616C32.7182 28.7611 32.9177 28.8606 33.1172 28.8606C33.4165 28.8606 33.9152 28.562 34.5137 27.9649C35.212 27.3678 36.1097 26.5717 37.4065 26.5717C38.404 26.5717 39.202 27.0693 40 27.5668L34.015 2.18943Z"/>
    <path d="M23.4415 53.1426H16.5587C15.8604 53.1426 15.4614 53.6402 15.4614 54.2373C15.4614 54.8344 15.9602 55.332 16.5587 55.332H23.4415C24.1397 55.332 24.5387 54.8344 24.5387 54.2373C24.6385 53.6402 24.1397 53.1426 23.4415 53.1426Z"/>
    <path d="M20.0499 28.7598C19.9501 28.7598 19.7506 28.8593 19.4514 28.9588C19.2519 29.0583 19.0524 29.2574 18.8529 29.3569V33.0391H21.1471V29.4564C20.6484 29.0583 20.2494 28.7598 20.0499 28.7598Z"/>
  </svg>
  <svg id="brick" viewBox="0 0 60 60" fill="#149080">
    <path d="M0 43.9933L27.4 60V36.5436L0 20.4362V43.9933ZM51.3 12.4832V15C51.3 16.8121 47.8 18.3221 43.6 18.3221C39.3 18.3221 35.9 16.8121 35.9 15V10.8725C36.2 12.5839 39.5 13.9933 43.6 13.9933C47.9 13.9933 51.3 12.4832 51.3 10.6711C51.3 8.85907 47.8 7.349 43.6 7.349C43.3 7.349 42.9 7.349 42.6 7.349L37.6 4.42954V7.55034C37.6 9.36242 34.1 10.8725 29.9 10.8725C27.2 10.8725 24.9 10.2685 23.5 9.36242C23.3 9.16108 23.1 8.95973 22.8 8.75839C22.4 8.3557 22.2 7.95302 22.2 7.55034V4.5302L17.4 7.349C17.1 7.349 16.7 7.349 16.3 7.349C12 7.349 8.60001 8.85907 8.60001 10.6711C8.60001 12.4832 12.1 13.9933 16.3 13.9933C20.4 13.9933 23.7 12.5839 24 10.8725V15C24 16.8121 20.5 18.3221 16.3 18.3221C12 18.3221 8.60001 16.8121 8.60001 15V12.5839L2.60001 16.1074L30.1 32.2148L57.5 16.2081L51.3 12.4832ZM37.7 22.7517C37.7 24.5638 34.2 26.0738 30 26.0738C25.7 26.0738 22.3 24.5638 22.3 22.7517V18.6242C22.6 20.3356 25.9 21.745 30 21.745C34.1 21.745 37.4 20.3356 37.7 18.6242V22.7517ZM32.6 36.745V60L60 43.9933V20.7383L32.6 36.745ZM29.9 6.6443C34.2 6.6443 37.6 5.13423 37.6 3.32215C37.6 1.51007 34.1 0 29.9 0C25.6 0 22.2 1.51007 22.2 3.32215C22.2 5.13423 25.6 6.6443 29.9 6.6443Z"/>
  </svg>
  <svg id="zigzag-pattern" viewBox="0 0 768 24" preserveAspectRatio="none" fill="#ffffff">
    <path d="M749.784 0C740.142 0 740.142 9.88235 730.567 9.88235C720.992 9.88235 720.925 0 711.35 0C701.776 0 701.709 9.88235 692.134 9.88235C682.492 9.88235 682.492 0 672.85 0C663.209 0 663.209 9.88235 653.634 9.88235C643.992 9.88235 643.992 0 634.417 0C624.776 0 624.776 9.88235 615.201 9.88235C605.626 9.88235 605.358 0 595.783 0C586.142 0 586.142 9.88235 576.567 9.88235C566.992 9.88235 566.858 0 557.283 0C547.642 0 547.642 9.88235 538.067 9.88235C528.425 9.88235 528.425 0 518.783 0C509.142 0 509.142 9.88235 499.567 9.88235C489.925 9.88235 489.925 0 480.35 0C470.776 0 470.642 9.88235 461 9.88235C451.358 9.88235 451.358 0 441.783 0C432.142 0 432.142 9.88235 422.567 9.88235C412.925 9.88235 412.925 0 403.283 0C393.642 0 393.642 9.88235 384.067 9.88235C374.425 9.88235 374.425 0 364.85 0C355.209 0 355.209 9.88235 345.634 9.88235C335.992 9.88235 335.992 0 326.417 0C316.776 0 316.776 9.88235 307.134 9.88235C297.492 9.88235 297.492 0 287.85 0C278.209 0 278.209 9.88235 268.567 9.88235C258.925 9.88235 258.925 0 249.283 0C239.642 0 239.642 9.88235 230 9.88235C220.358 9.88235 220.358 0 210.717 0C201.075 0 201.075 9.88235 191.433 9.88235C181.791 9.88235 181.791 0 172.15 0C162.508 0 162.508 9.88235 152.933 9.88235C143.291 9.88235 143.291 0 133.65 0C124.008 0 124.008 9.88235 114.366 9.88235C104.724 9.88235 104.724 0 95.0826 0C85.4409 0 85.4409 9.88235 75.7991 9.88235C66.1574 9.88235 66.1574 0 56.5157 0C47.1417 0 47.1417 9.88235 37.5 9.88235C27.8583 9.88235 27.8583 0 18.2835 0C8.7087 0 8.64174 9.88235 -1 9.88235V24H769V9.88235C759.358 9.88235 759.358 0 749.784 0Z"/>
  </svg>
  <svg id="flower" viewBox="0 0 33 38" fill="#63d1bb">
    <path d="M16.5 38C25.575 38 33 30.6452 33 21.6559C23.925 21.6559 16.5 28.9086 16.5 38ZM4.74375 16.6505C4.74375 19.2043 6.80625 21.1452 9.28125 21.1452C10.2094 21.1452 11.1375 20.8387 11.8594 20.328V20.6344C11.8594 23.1882 13.9219 25.129 16.3969 25.129C18.975 25.129 20.9344 23.086 20.9344 20.6344V20.328C21.6562 20.8387 22.5844 21.1452 23.5125 21.1452C26.0906 21.1452 28.05 19.1021 28.05 16.6505C28.05 14.8118 27.0188 13.2796 25.4719 12.5645C27.0188 11.8495 28.05 10.3172 28.05 8.47849C28.05 5.92473 25.9875 3.98387 23.5125 3.98387C22.5844 3.98387 21.6562 4.29032 20.9344 4.80107V4.49462C20.9344 1.94086 18.8719 0 16.3969 0C13.8187 0 11.8594 2.04301 11.8594 4.49462V4.80107C11.1375 4.29032 10.2094 3.98387 9.28125 3.98387C6.70312 3.98387 4.74375 6.02688 4.74375 8.47849C4.74375 10.3172 5.775 11.8495 7.32188 12.5645C5.87813 13.2796 4.74375 14.8118 4.74375 16.6505ZM16.5 7.96774C19.0781 7.96774 21.0375 10.0108 21.0375 12.4624C21.0375 15.0161 18.975 16.957 16.5 16.957C13.9219 16.957 11.9625 14.914 11.9625 12.4624C11.9625 10.0108 13.9219 7.96774 16.5 7.96774ZM0 21.6559C0 30.6452 7.425 38 16.5 38C16.5 28.9086 9.075 21.6559 0 21.6559Z"/>
  </svg>
  <svg id="ball-thread" viewBox="0 0 35 34" fill="#63d1bb">
    <path d="M0.305558 13.9528C-0.101853 16.0303 -0.101853 18.1079 0.305558 20.1854L4.48152 17.0196L0.305558 13.9528Z"/>
    <path d="M24.852 1.586C19.9631 -0.590493 14.2594 -0.590493 9.26857 1.98172L16.9075 7.52187L24.852 1.586Z"/>
    <path d="M34.528 13.062L29.6391 16.7225L34.6299 20.3829C35.1392 18.0086 35.1392 15.4364 34.528 13.062Z"/>
    <path d="M9.37046 32.057C14.2594 34.5303 20.2687 34.7281 25.3613 32.1559L17.1113 26.1211L9.37046 32.057Z"/>
    <path d="M8.04639 14.2488L1.73152 9.698C1.42596 10.3905 1.1204 11.083 0.916698 11.7756L6.31489 15.7328L8.04639 14.2488Z"/>
    <path d="M18.9446 24.8349L27.3983 30.9686C27.7039 30.7707 28.0095 30.5729 28.2132 30.375C28.5187 30.1772 28.8243 29.8804 29.1298 29.5836L20.6761 23.4498L18.9446 24.8349Z"/>
    <path d="M11.6112 11.5781L4.07412 6.13684C3.56486 6.6315 3.15745 7.22509 2.75003 7.81867L9.77787 12.9631L11.6112 11.5781Z"/>
    <path d="M22.5094 22.1635L30.7595 28.1983C31.2688 27.7036 31.6762 27.11 32.0836 26.5165L24.2409 20.7784L22.5094 22.1635Z"/>
    <path d="M15.176 8.90696L7.33339 3.16895C7.12969 3.26788 6.92598 3.46574 6.72228 3.56467C6.31487 3.86146 5.90746 4.15826 5.6019 4.55398L13.4446 10.1931L15.176 8.90696Z"/>
    <path d="M26.0743 19.3936L33.204 24.538C33.5095 23.8455 33.8151 23.2519 34.1206 22.5594L27.9076 18.0085L26.0743 19.3936Z"/>
    <path d="M26.8891 2.67419L0.916698 22.3615C1.1204 23.054 1.42596 23.7466 1.73152 24.4391L28.7225 3.9603C28.2132 3.46564 27.6021 3.06992 26.8891 2.67419Z"/>
    <path d="M31.2688 6.53234C30.9632 6.13661 30.6576 5.74089 30.3521 5.44409L2.85186 26.2197C3.05557 26.7143 3.36113 27.11 3.66669 27.4068C3.76854 27.6047 3.97224 27.8026 4.0741 27.9015L31.778 7.12592C31.5743 6.92806 31.4725 6.7302 31.2688 6.53234Z"/>
    <path d="M32.8984 8.90674L5.70373 29.4844C6.21299 29.9791 6.82411 30.4738 7.43522 30.8695L33.9169 10.8854C33.6114 10.1928 33.3058 9.50033 32.8984 8.90674Z"/>
  </svg>
  <svg id="banknote" viewBox="0 0 47 27" fill="#63d1bb">
    <path d="M43.0665 0H3.93347C1.71459 0 0 1.68132 0 3.85714V23.1429C0 25.3187 1.71459 27 3.93347 27H43.0665C45.2854 27 47 25.3187 47 23.1429V3.85714C47 1.78022 45.1845 0 43.0665 0ZM3.02575 24.7253V2.76923H43.5708V24.7253H3.02575Z"/>
    <path d="M6.95925 20.8683H39.6374V6.62659H6.95925V20.8683ZM23.5 8.50571C26.4249 8.50571 28.8455 10.8793 28.8455 13.7475C28.8455 16.6156 26.4249 18.9892 23.5 18.9892C20.5751 18.9892 18.1545 16.6156 18.1545 13.7475C18.1545 10.7804 20.5751 8.50571 23.5 8.50571Z"/>
  </svg>
  <svg id="rocket" viewBox="0 0 55 23" fill="#63d1bb">
    <path d="M40.9467 5.75002C37.307 4.75864 33.0607 4.06466 28.41 4.06466C25.478 4.06466 22.8493 4.26294 20.625 4.65949L13.75 0H0.10114L5.9651 6.14656H14.4577C9.80697 7.73277 7.58272 9.61639 7.58272 9.61639V13.3836C7.58272 13.3836 9.90811 15.2672 14.5588 16.8534H5.86396L0 23H13.6489L20.5239 18.3405C22.8492 18.7371 25.3768 18.9354 28.3088 18.9354C32.8584 18.9354 37.1048 18.2414 40.8456 17.25C39.6324 15.4655 38.9246 13.5819 38.9246 11.4009C39.0257 9.4181 39.8345 7.5345 40.9467 5.75002Z"/>
    <path d="M44.4853 6.74121C43.1709 8.32742 42.4632 9.91361 42.4632 11.4998C42.4632 13.086 43.1709 14.6722 44.4853 16.2585C50.9559 14.0774 55 11.4998 55 11.4998C55 11.4998 50.9559 8.92224 44.4853 6.74121Z"/>
  </svg>
  <svg id="heart" viewBox="0 0 34 27" fill="#63d1bb">
    <path d="M34 8.44964C34 3.78777 29.9818 0 25.0364 0C21.5333 0 18.5455 1.94245 17 4.66187C15.5576 1.94245 12.4667 0 8.96364 0C4.01818 0 0 3.78777 0 8.44964C0 17.2878 15.1455 27 17 27C18.9576 27 34 17.3849 34 8.44964Z"/>
  </svg>
  <svg id="gift-package" viewBox="0 0 33 32" fill="#63d1bb">
    <path d="M3.02752 32H15.6422V18.2716H3.02752V32ZM31.3853 8.69136H24.0183C24.5229 8.39506 25.0275 8.19753 25.4312 7.90123C27.0459 6.81481 27.8532 5.33333 27.8532 3.95062C27.8532 2.76543 27.2477 1.77777 26.4404 1.08641C25.633 0.395053 24.5229 0 23.4128 0C22.2018 0 20.9908 0.395053 20.0826 1.08641C18.5688 2.07406 17.4587 3.55555 16.6514 5.1358C16.6514 5.23456 16.5505 5.33333 16.5505 5.33333C16.2477 4.74073 15.945 4.14814 15.5413 3.55555C14.8349 2.56789 14.0275 1.679 13.0183 1.08641C12.0092 0.493818 10.8991 0 9.68807 0C8.47706 0 7.36697 0.49383 6.45871 1.28395C5.65137 2.07408 5.04587 3.16049 5.04587 4.34567C5.04587 5.03703 5.2477 5.82715 5.65137 6.51851C6.25687 7.4074 7.06422 8.09877 8.27523 8.69136H1.61467C0.706413 8.69136 0 9.38271 0 10.2716V16.0988H15.5413V8.69136H17.4587V16.0988H33V10.2716C33 9.38271 32.2936 8.69136 31.3853 8.69136ZM8.88073 6.41975C8.27522 6.02469 7.87155 5.62962 7.66972 5.33333C7.46788 4.93826 7.36696 4.64197 7.36696 4.34567C7.36696 3.85184 7.56881 3.35802 8.0734 2.86419C8.47707 2.46913 9.08256 2.17284 9.68807 2.17284C10.3945 2.17284 11.1009 2.37036 11.7064 2.86419C12.7156 3.55555 13.7248 4.64196 14.3303 6.02468C14.633 6.71604 14.9358 7.4074 15.1376 8.09876C12.0092 7.80246 9.99082 7.11111 8.88073 6.41975ZM19.4771 4.8395C20.0826 4.04938 20.6881 3.35802 21.3945 2.96296C22.1009 2.46914 22.8073 2.27161 23.4128 2.27161C24.0183 2.27161 24.5229 2.46914 24.9266 2.76543C25.3303 3.06173 25.5321 3.45679 25.5321 3.95062C25.5321 4.44444 25.2294 5.23456 24.0183 6.02468C22.9083 6.8148 20.8899 7.7037 17.8624 8.29629C18.1651 7.1111 18.7706 5.82715 19.4771 4.8395ZM17.4587 32H30.0734V18.2716H17.4587V32Z"/>
  </svg>
  <svg id="arrow-left" viewBox="0 0 50 26" fill="#000000">
    <path d="M50 11H7.7L15.8 2.8L13 0L0 13L13 26L15.8 23.2L7.7 15H50V11Z"/>
  </svg>
  <svg id="vkontakte" viewBox="0 0 28 23">
    <path d="M1 5.83876C1 4.98373 1.5151 4.52268 2.54531 4.45562L6.51515 4.48077C6.78158 4.48077 6.95921 4.60651 7.04802 4.85799C7.45655 6.11538 7.91392 7.20094 8.42014 8.11465C8.92637 9.02835 9.58801 10.0804 10.4051 11.2707C10.4761 11.4216 10.5916 11.497 10.7514 11.497C10.8758 11.497 10.9735 11.4384 11.0445 11.321L11.1244 11.0444L11.1511 6.69379C11.1511 6.39201 11.0756 6.19083 10.9246 6.09024C10.7736 5.98965 10.4939 5.9142 10.0853 5.86391C9.76563 5.81361 9.60577 5.62919 9.60577 5.31065C9.60577 5.24359 9.61465 5.19329 9.63241 5.15976C10.0054 4.07002 11.0711 3.52515 12.8296 3.52515L14.3216 3.5C14.9966 3.5 15.5561 3.65927 16.0001 3.97781C16.4442 4.29635 16.6662 4.79931 16.6662 5.48669V11.1953C16.7906 11.2791 16.906 11.321 17.0126 11.321C17.279 11.321 17.5099 11.1701 17.7053 10.8683C19.6592 8.28649 20.716 6.55966 20.8759 5.68787C20.8759 5.6711 20.8936 5.62919 20.9291 5.56213C21.0535 5.31065 21.2577 5.0927 21.5419 4.90828C21.8261 4.72387 22.0748 4.59813 22.288 4.53107C22.359 4.49753 22.4389 4.48077 22.5277 4.48077H26.6574L26.9239 4.50592C27.2791 4.50592 27.5544 4.66519 27.7498 4.98373C27.8209 5.08432 27.8697 5.19329 27.8964 5.31065C27.923 5.42801 27.9408 5.54536 27.9496 5.66272C27.9585 5.78008 27.963 5.84714 27.963 5.86391V6.03994C27.8386 6.72732 27.5233 7.4608 27.0171 8.24038C26.5109 9.01997 25.867 9.86243 25.0855 10.7678C24.304 11.6731 23.8155 12.2682 23.6201 12.5533C23.4603 12.7544 23.3803 12.9389 23.3803 13.1065C23.3803 13.2406 23.4514 13.3915 23.5935 13.5592L27.4834 18.1864C27.6965 18.4546 27.8031 18.748 27.8031 19.0666C27.8031 19.4522 27.6432 19.7707 27.3235 20.0222C27.0038 20.2737 26.6219 20.4162 26.1779 20.4497L25.7249 20.4749H21.6752C21.6574 20.4749 21.6219 20.479 21.5686 20.4874C21.5153 20.4958 21.4798 20.5 21.462 20.5C21.0712 20.5 20.7071 20.3407 20.3696 20.0222C20.2453 19.8881 19.4105 18.8989 17.8652 17.0547C17.7764 16.9374 17.652 16.8284 17.4922 16.7278C17.4211 16.9961 17.3279 17.3817 17.2124 17.8846C17.097 18.3876 17.0126 18.748 16.9593 18.966L16.8794 19.3935C16.7018 19.9803 16.3287 20.3323 15.7604 20.4497L15.3874 20.4749H12.7763C11.3021 20.4749 9.83224 19.8378 8.36686 18.5636C6.90148 17.2894 5.58264 15.6423 4.41034 13.622C3.23803 11.6018 2.14566 9.25049 1.13322 6.56805C1.04441 6.3501 1 6.107 1 5.83876ZM17.0126 12.3521C16.6396 12.3521 16.3021 12.2557 16.0001 12.0629C15.6982 11.8701 15.5472 11.606 15.5472 11.2707V5.48669C15.5472 5.15138 15.4584 4.91248 15.2808 4.76997C15.1032 4.62747 14.7923 4.55621 14.3483 4.55621L12.8296 4.60651C12.0658 4.60651 11.4886 4.73225 11.0978 4.98373C11.8793 5.3358 12.2701 5.90582 12.2701 6.69379V11.1198C12.2346 11.539 12.0569 11.8868 11.7372 12.1635C11.4175 12.4401 11.0623 12.5784 10.6715 12.5784C10.1386 12.5784 9.7301 12.3353 9.44591 11.8491C8.06046 9.87081 7.03025 7.9931 6.35529 6.21598L6.1155 5.56213L2.57195 5.53698C2.34104 5.53698 2.21227 5.54956 2.18562 5.5747C2.15898 5.59985 2.14566 5.6711 2.14566 5.78846C2.14566 5.93935 2.16342 6.09862 2.19895 6.26627L2.75845 7.67456C4.25048 11.3126 5.87127 14.1795 7.62085 16.2751C9.37042 18.3708 11.0889 19.4186 12.7763 19.4186H15.4406C15.5472 19.4186 15.6271 19.3893 15.6804 19.3306C15.7337 19.2719 15.7781 19.1588 15.8136 18.9911L15.8669 18.7396L16.3732 16.5266C16.5152 16.2249 16.6396 16.0237 16.7462 15.9231C16.9415 15.7387 17.1725 15.6465 17.4389 15.6465C17.8652 15.6465 18.3003 15.8895 18.7444 16.3757L21.0091 19.0917C21.1512 19.3097 21.3022 19.4186 21.462 19.4186H25.8581C26.391 19.4186 26.6574 19.2929 26.6574 19.0414C26.6574 18.9576 26.6308 18.8738 26.5775 18.7899L22.7142 14.2382C22.4123 13.8861 22.2613 13.5089 22.2613 13.1065C22.2613 12.7041 22.4034 12.3185 22.6876 11.9497C22.9185 11.6144 23.367 11.057 24.0331 10.2774C24.6992 9.49778 25.2809 8.76849 25.7782 8.0895C26.2756 7.4105 26.6042 6.79438 26.764 6.24112L26.8439 5.9142C26.8262 5.88067 26.8173 5.82618 26.8173 5.75074C26.8173 5.6753 26.8084 5.61243 26.7907 5.56213H22.6077C22.3412 5.66272 22.1281 5.81361 21.9682 6.01479L21.8084 6.4926C21.3643 7.64941 20.2009 9.43491 18.3181 11.8491C17.9451 12.1844 17.5099 12.3521 17.0126 12.3521Z"/>
  </svg>
  <svg id="youtube" viewBox="0 0 28 23">
    <path d="M17.8509 11.2927L12.6145 7.80184C12.5159 7.73691 12.4016 7.69985 12.2837 7.69459C12.1657 7.68934 12.0486 7.71608 11.9446 7.77198C11.8406 7.82789 11.7537 7.91087 11.693 8.01215C11.6324 8.11343 11.6002 8.22924 11.6 8.34729V15.3291C11.6001 15.4481 11.6327 15.5648 11.6942 15.6667C11.7557 15.7686 11.8438 15.8518 11.9491 15.9073C12.0524 15.9631 12.1691 15.9895 12.2864 15.9837C12.4037 15.978 12.5172 15.9402 12.6145 15.8746L17.8509 12.3837C17.9409 12.3239 18.0148 12.2429 18.0658 12.1477C18.1169 12.0526 18.1436 11.9462 18.1436 11.8382C18.1436 11.7302 18.1169 11.6239 18.0658 11.5287C18.0148 11.4335 17.9409 11.3525 17.8509 11.2927ZM12.9091 14.1073V9.56911L16.3127 11.8382L12.9091 14.1073ZM25.3891 5.54366C25.2942 5.17547 25.1131 4.83511 24.8609 4.55061C24.6086 4.26611 24.2924 4.04561 23.9382 3.90729C20.2182 2.4782 14.2509 2.50002 14 2.50002C13.7491 2.50002 7.78182 2.4782 4.06182 3.90729C3.70764 4.04561 3.3914 4.26611 3.13914 4.55061C2.88689 4.83511 2.70584 5.17547 2.61091 5.54366C2.32727 6.61275 2 8.57638 2 11.8382C2 15.1 2.32727 17.0637 2.61091 18.1327C2.70584 18.5009 2.88689 18.8413 3.13914 19.1258C3.3914 19.4103 3.70764 19.6308 4.06182 19.7691C7.78182 21.1982 13.7491 21.1764 14 21.1764H14.0764C14.8291 21.1764 20.3927 21.1327 23.9382 19.7691C24.2924 19.6308 24.6086 19.4103 24.8609 19.1258C25.1131 18.8413 25.2942 18.5009 25.3891 18.1327C25.6727 17.0637 26 15.1 26 11.8382C26 8.57638 25.6727 6.61275 25.3891 5.54366ZM24.1236 17.8055C24.0807 17.972 23.999 18.1259 23.8853 18.2548C23.7715 18.3838 23.6289 18.484 23.4691 18.5473C19.9782 19.8891 14.0655 19.8673 14 19.8673C13.9345 19.8673 8.02182 19.8891 4.53091 18.5473C4.37107 18.484 4.22846 18.3838 4.11471 18.2548C4.00096 18.1259 3.91929 17.972 3.87636 17.8055C3.61455 16.8018 3.30909 14.9582 3.30909 11.8382C3.30909 8.7182 3.61455 6.87457 3.87636 5.87093C3.91929 5.70445 4.00096 5.55047 4.11471 5.42156C4.22846 5.29264 4.37107 5.19243 4.53091 5.12911C8.02182 3.78729 13.9345 3.80911 14 3.80911C14.0655 3.80911 19.9782 3.78729 23.4691 5.12911C23.6289 5.19243 23.7715 5.29264 23.8853 5.42156C23.999 5.55047 24.0807 5.70445 24.1236 5.87093C24.3855 6.87457 24.6909 8.7182 24.6909 11.8382C24.6909 14.9582 24.3855 16.8018 24.1236 17.8055Z"/>
  </svg>
  <svg id="telegram" viewBox="0 0 28 23">
    <path fill-rule="evenodd" clip-rule="evenodd" d="M23.4608 3.65291C23.6393 3.80222 23.7255 4.0349 23.6872 4.26448L21.0611 20.0214C21.0244 20.2411 20.8789 20.4273 20.6745 20.5159C20.47 20.6045 20.2346 20.5833 20.0493 20.4597L12.1708 15.2074C12.0177 15.1054 11.9145 14.9437 11.8862 14.7619C11.858 14.58 11.9074 14.3947 12.0223 14.251L14.633 10.9877L10.273 13.8944C10.077 14.025 9.82597 14.0407 9.61524 13.9353L4.36293 11.3092C4.12769 11.1915 3.98535 10.9449 4.0012 10.6824C4.01705 10.4198 4.18804 10.1921 4.43573 10.1036L22.8188 3.53826C23.038 3.45998 23.2822 3.50359 23.4608 3.65291ZM6.32626 10.8228L9.86168 12.5905L17.4231 7.5495C17.6925 7.36994 18.0525 7.41349 18.2712 7.6521C18.49 7.8907 18.5022 8.25314 18.3 8.50591L13.495 14.5121L19.9328 18.8039L22.2083 5.15058L6.32626 10.8228Z"/>
  </svg>
  <svg id="copyright-logo" viewBox="0 0 27 35">
    <path d="M13.6 0H13.5L0 1.4V26.1L13.5 34.1L26.9 26.1V1.4L13.6 0ZM25 12.1L13.5 5.3V5.2H13.4L13.3 5.1V5.2L1.9 12.1V3.1L13.4 1.9L25 3.1V12.1ZM13.4 6.8L24.9 13.5L20.4 16.1L13.3 11.9V13.3L19.2 16.8L18.3 17.3L13.3 14.3V15.7L17.1 18L16.3 18.5L13.3 16.7V18.1L15.2 19.2L13.4 20.3L2 13.6L13.4 6.8ZM1.9 15.1L13.3 21.9V22.9L5.4 18.2V19.6L13.4 24.4V25.5L5.4 20.8V22.2L13.4 27L21.5 22.1V16.9L24.9 14.9V24.9L13.4 31.8L1.9 25V15.1Z"/>
  </svg>
  <svg id="zigzag-line" viewBox="0 0 320 6" width="320" height="6" fill="#f1f1f1">
    <path d="M320 6C317.496 6 316.188 4.8 315.13 3.83478C314.184 2.97391 313.489 2.34783 312.014 2.34783C310.511 2.34783 309.843 2.97391 308.897 3.83478C307.84 4.8 306.532 6 304.028 6C301.523 6 300.216 4.8 299.158 3.83478C298.212 2.97391 297.517 2.34783 296.042 2.34783C294.567 2.34783 293.871 2.97391 292.925 3.83478C291.868 4.8 290.56 6 288.056 6C285.551 6 284.243 4.8 283.186 3.83478C282.24 2.97391 281.544 2.34783 280.07 2.34783C278.567 2.34783 277.899 2.97391 276.953 3.83478C275.896 4.8 274.588 6 272.083 6C269.579 6 268.271 4.8 267.214 3.83478C266.268 2.97391 265.572 2.34783 264.097 2.34783C262.595 2.34783 261.927 2.97391 260.981 3.83478C259.812 4.8 258.504 6 256 6C253.496 6 252.188 4.8 251.13 3.83478C250.184 2.97391 249.489 2.34783 248.014 2.34783C246.511 2.34783 245.843 2.97391 244.897 3.83478C243.84 4.8 242.532 6 240.028 6C237.523 6 236.216 4.8 235.158 3.83478C234.212 2.97391 233.517 2.34783 232.042 2.34783C230.539 2.34783 229.871 2.97391 228.925 3.83478C227.812 4.8 226.504 6 224 6C221.496 6 220.188 4.8 219.13 3.83478C218.184 2.97391 217.489 2.34783 216.014 2.34783C214.511 2.34783 213.843 2.97391 212.897 3.83478C211.84 4.8 210.532 6 208.028 6C205.523 6 204.216 4.8 203.158 3.83478C202.212 2.97391 201.517 2.34783 200.042 2.34783C198.567 2.34783 197.871 2.97391 196.925 3.83478C195.84 4.8 194.504 6 192 6C189.496 6 188.188 4.8 187.13 3.83478C186.184 2.97391 185.489 2.34783 184.014 2.34783C182.511 2.34783 181.843 2.97391 180.897 3.83478C179.84 4.8 178.532 6 176.028 6C173.523 6 172.216 4.8 171.158 3.83478C170.212 2.97391 169.517 2.34783 168.042 2.34783C166.539 2.34783 165.871 2.97391 164.925 3.83478C163.868 4.8 162.56 6 160.056 6C157.551 6 156.243 4.8 155.186 3.83478C154.24 2.97391 153.544 2.34783 152.07 2.34783C150.595 2.34783 149.899 2.97391 148.953 3.83478C147.896 4.8 146.588 6 144.083 6C141.579 6 140.271 4.8 139.214 3.83478C138.268 2.97391 137.572 2.34783 136.097 2.34783C134.595 2.34783 133.927 2.97391 132.981 3.83478C131.923 4.8 130.616 6 128.111 6C125.607 6 124.299 4.8 123.242 3.83478C122.296 2.97391 121.6 2.34783 120.125 2.34783C118.623 2.34783 117.955 2.97391 117.009 3.83478C115.951 4.8 114.643 6 112.139 6C109.635 6 108.327 4.8 107.27 3.83478C106.323 2.97391 105.628 2.34783 104.153 2.34783C102.65 2.34783 101.983 2.97391 101.037 3.83478C99.9791 4.8 98.6713 6 96.167 6C93.6626 6 92.3548 4.8 91.2974 3.83478C90.3513 2.97391 89.6556 2.34783 88.1809 2.34783C86.7061 2.34783 86.0104 2.97391 85.0643 3.83478C84.007 4.8 82.6991 6 80.1948 6C77.6904 6 76.3826 4.8 75.3252 3.83478C74.3791 2.97391 73.6835 2.34783 72.2087 2.34783C70.7061 2.34783 70.0383 2.97391 69.0922 3.83478C68.0348 4.8 66.727 6 64.2226 6C61.7183 6 60.4104 4.8 59.353 3.83478C58.407 2.97391 57.7113 2.34783 56.2365 2.34783C54.7339 2.34783 54.0661 2.97391 53.12 3.83478C52.0626 4.8 50.7548 6 48.2504 6C45.7461 6 44.4383 4.8 43.3809 3.83478C42.4348 2.97391 41.7391 2.34783 40.2643 2.34783C38.7617 2.34783 38.0939 2.97391 37.1478 3.83478C35.84 4.8 34.5043 6 32 6C29.4957 6 28.1878 4.8 27.1304 3.83478C26.1843 2.97391 25.4887 2.34783 24.0139 2.34783C22.5113 2.34783 21.8435 2.97391 20.8974 3.83478C19.84 4.8 18.5322 6 16.0278 6C13.5235 6 12.2157 4.8 11.1583 3.83478C10.1843 2.97391 9.4887 2.34783 8.01391 2.34783C6.5113 2.34783 5.84348 2.97391 4.89739 3.83478C3.81217 4.8 2.50435 6 0 6V3.65217C1.50261 3.65217 2.17043 3.02609 3.11652 2.16522C4.17391 1.2 5.48174 0 8.01391 0C10.5183 0 11.8261 1.2 12.8835 2.16522C13.8296 3.02609 14.5252 3.65217 16 3.65217C17.5026 3.65217 18.1704 3.02609 19.1165 2.16522C20.1739 1.2 21.5096 0 24.0139 0C26.5183 0 27.8261 1.2 28.8835 2.16522C29.8296 3.02609 30.5252 3.65217 32 3.65217C33.5026 3.65217 34.1704 3.02609 35.1165 2.16522C36.1739 1.2 37.4817 0 39.9861 0C42.4904 0 43.7983 1.2 44.8556 2.16522C45.8017 3.02609 46.4974 3.65217 47.9722 3.65217C49.4748 3.65217 50.1426 3.02609 51.0887 2.16522C52.1461 1.2 53.4539 0 55.9583 0C58.4626 0 59.7704 1.2 60.8278 2.16522C61.7739 3.02609 62.4696 3.65217 63.9443 3.65217C65.447 3.65217 66.1148 3.02609 67.0609 2.16522C68.1183 1.2 69.4261 0 71.9304 0C74.4348 0 75.7426 1.2 76.8 2.16522C77.7461 3.02609 78.4417 3.65217 79.9165 3.65217C81.4191 3.65217 82.087 3.02609 83.033 2.16522C84.0904 1.2 85.3983 0 87.9026 0C90.407 0 91.7148 1.2 92.7722 2.16522C93.7183 3.02609 94.4139 3.65217 95.8887 3.65217C97.3913 3.65217 98.0591 3.02609 99.0052 2.16522C100.063 1.2 101.37 0 103.875 0C106.379 0 107.687 1.2 108.744 2.16522C109.69 3.02609 110.386 3.65217 111.861 3.65217C113.336 3.65217 114.031 3.02609 114.977 2.16522C116.035 1.2 117.343 0 119.847 0C122.351 0 123.659 1.2 124.717 2.16522C125.663 3.02609 126.358 3.65217 127.833 3.65217C129.336 3.65217 130.003 3.02609 130.95 2.16522C132.007 1.2 133.315 0 135.819 0C138.323 0 139.631 1.2 140.689 2.16522C141.635 3.02609 142.33 3.65217 143.805 3.65217C145.308 3.65217 145.976 3.02609 146.922 2.16522C147.979 1.2 149.287 0 151.791 0C154.296 0 155.603 1.2 156.661 2.16522C157.607 3.02609 158.303 3.65217 159.777 3.65217C161.28 3.65217 161.948 3.02609 162.894 2.16522C163.951 1.2 165.259 0 167.763 0C170.268 0 171.576 1.2 172.633 2.16522C173.579 3.02609 174.275 3.65217 175.75 3.65217C177.252 3.65217 177.92 3.02609 178.866 2.16522C179.923 1.2 181.231 0 183.736 0C186.24 0 187.548 1.2 188.605 2.16522C189.551 3.02609 190.247 3.65217 191.722 3.65217C193.224 3.65217 193.892 3.02609 194.838 2.16522C195.896 1.2 197.203 0 199.708 0C202.212 0 203.52 1.2 204.577 2.16522C205.523 3.02609 206.219 3.65217 207.694 3.65217C209.197 3.65217 209.864 3.02609 210.81 2.16522C211.868 1.2 213.176 0 215.68 0C218.184 0 219.492 1.2 220.55 2.16522C221.496 3.02609 222.191 3.65217 223.666 3.65217C225.169 3.65217 225.837 3.02609 226.783 2.16522C228.174 1.2 229.482 0 232.014 0C234.518 0 235.826 1.2 236.883 2.16522C237.83 3.02609 238.525 3.65217 240 3.65217C241.475 3.65217 242.17 3.02609 243.117 2.16522C244.174 1.2 245.482 0 247.986 0C250.49 0 251.798 1.2 252.856 2.16522C253.802 3.02609 254.497 3.65217 255.972 3.65217C257.447 3.65217 258.143 3.02609 259.089 2.16522C260.174 1.2 261.482 0 264.014 0C266.546 0 267.826 1.2 268.883 2.16522C269.83 3.02609 270.525 3.65217 272 3.65217C273.475 3.65217 274.17 3.02609 275.117 2.16522C276.174 1.2 277.482 0 279.986 0C282.49 0 283.798 1.2 284.856 2.16522C285.802 3.02609 286.497 3.65217 287.972 3.65217C289.475 3.65217 290.143 3.02609 291.089 2.16522C292.146 1.2 293.454 0 295.958 0C298.463 0 299.77 1.2 300.828 2.16522C301.774 3.02609 302.47 3.65217 303.944 3.65217C305.419 3.65217 306.115 3.02609 307.061 2.16522C308.118 1.2 309.426 0 311.93 0C314.435 0 315.743 1.2 316.8 2.16522C317.746 3.02609 318.442 3.65217 319.917 3.65217V6H320Z"/>
  </svg>
  <svg id="tick" viewBox="0 0 33 22" fill="black">
    <path d="M32.3704 1.35683L31.0098 0L11.5739 19.2863L1.95311 9.69163L0.59259 11.0485L10.2134 20.6432L11.5739 22L13.0316 20.6432L32.3704 1.35683Z"/>
  </svg>
  <svg id="phone" viewBox="0 0 25 24">
    <path d="M17.4395 24C17.0363 24 16.7339 24 16.3306 24C11.3911 23.4074 7.7621 21.1358 5.14113 18.2717C2.52016 15.4075 0.403226 11.7532 0 6.7162C0 6.22237 0 5.82731 0 5.33349C0.100806 4.44461 0.504032 3.85202 1.10887 3.25943C1.71371 2.56808 2.72177 1.77796 3.62903 1.6792C4.33468 1.6792 5.44355 2.17302 5.84677 2.76561C6.25 3.25943 6.45161 4.34584 6.65323 5.13596C6.85484 6.02484 7.25806 7.11125 7.15726 7.90137C6.95565 9.08655 5.34274 9.58037 4.93952 10.4693C6.55242 14.1235 9.07258 16.889 12.5 18.6667C13.3065 18.1729 14.1129 16.7902 15.3226 16.7902C15.7258 16.7902 16.3306 16.9877 16.7339 17.0865C17.2379 17.1852 17.6411 17.3828 18.0444 17.5803C18.75 17.8766 20.0605 18.1729 20.4637 18.7655C20.8669 19.3581 21.1694 20.3457 21.0685 20.9383C20.7661 22.2222 18.6492 23.6049 17.4395 24Z"/>
    <path d="M12.6008 1.48147C18.5484 1.48147 23.4879 6.22217 23.4879 12.1481H25C25 5.43205 19.4557 0 12.6008 0V1.48147Z"/>
    <path d="M12.6008 9.18506V10.7653C13.4073 10.7653 14.0121 11.3579 14.0121 12.148H15.625C15.625 10.5678 14.3145 9.18506 12.6008 9.18506Z"/>
    <path d="M12.6008 6.12356C15.9274 6.12356 18.75 8.79021 18.75 12.1482H20.3629C20.3629 8.00009 16.9355 4.64209 12.7016 4.64209V6.12356H12.6008Z"/>
  </svg>
  <svg id="email" viewBox="0 0 32 21">
    <path d="M28 0H4C1.8 0 0 1.8 0 4V17C0 19.2 1.8 21 4 21H28C30.2 21 32 19.2 32 17V4C32 1.8 30.2 0 28 0ZM2 5.3L9 10.6L2 15.9V5.3ZM30 17C30 18.1 29.1 19 28 19H4C2.9 19 2 18.1 2 17L9.8 11.1L14.2 14.4C14.7 14.8 15.4 15 16 15C16.6 15 17.3 14.8 17.8 14.4L22.2 11.1L30 17ZM30 15.8L23 10.5L30 5.2V15.8ZM17.2 13.6C16.8 13.9 16.4 14 16 14C15.6 14 15.1 13.9 14.8 13.6L10.7 10.5L9.9 9.9L2 4C2 2.9 2.9 2 4 2H28C29.1 2 30 2.9 30 4L17.2 13.6Z"/>
  </svg>
  <svg id="play" viewBox="0 0 102 78">
    <path d="M98.2487 18.3359C98.2487 18.3359 97.3362 11.2447 94.3958 8.10438C90.7457 4.0523 86.5887 3.95098 84.7636 3.74837C71.2785 2.73535 51.0002 2.73535 51.0002 2.73535H50.8988C50.8988 2.73535 30.6205 2.73535 17.1354 3.74837C15.2089 3.95098 11.1533 4.0523 7.5032 8.10438C4.66423 11.2447 3.65031 18.3359 3.65031 18.3359C3.65031 18.3359 2.73779 26.6427 2.73779 34.9494V42.7497C2.73779 51.0564 3.65031 59.3632 3.65031 59.3632C3.65031 59.3632 4.56284 66.4544 7.5032 69.5947C11.1533 73.6468 16.0201 73.5455 18.1493 73.9507C25.8551 74.7611 51.0002 74.9638 51.0002 74.9638C51.0002 74.9638 71.2785 74.9638 84.7636 73.9507C86.6901 73.7481 90.7457 73.6468 94.3958 69.5947C97.2348 66.4544 98.2487 59.3632 98.2487 59.3632C98.2487 59.3632 99.1613 51.0564 99.1613 42.7497V34.9494C99.1613 26.6427 98.2487 18.3359 98.2487 18.3359Z" fill="#63d1bb"/>
    <path d="M50.8986 77.8C49.8847 77.8 25.5507 77.4961 17.8449 76.787H17.7435H17.6421C17.338 76.6857 16.9324 76.6857 16.5269 76.5844C13.9921 76.2805 9.22664 75.6727 5.57654 71.5193C2.12922 67.8724 1.11531 60.5786 1.01392 59.7682C1.01392 59.4643 0 51.1575 0 42.8508V35.0505C0 26.6425 0.912534 18.437 0.912534 18.1331V18.0318C1.01393 17.2213 2.12923 10.0289 5.47516 6.28071C9.53082 1.82342 14.0934 1.31693 16.3241 1.11433C16.5268 1.11433 16.7296 1.11432 16.831 1.01302H16.9324C30.4175 0 50.6958 0 50.8986 0H51C51.2028 0 71.4811 0 84.9662 1.01302H85.0676C85.2704 1.01302 85.3718 1.01303 85.5745 1.11433C87.8052 1.31693 92.3678 1.82342 96.4235 6.28071C99.8708 9.92759 100.885 17.2213 100.986 18.0318C100.986 18.3357 102 26.6425 102 35.0505V42.8508C102 51.2588 101.087 59.4643 100.986 59.7682V59.8695C100.885 60.68 99.7694 67.9737 96.4235 71.6206C92.3678 76.0779 87.8052 76.5844 85.5745 76.787C85.3718 76.787 85.169 76.787 85.0676 76.8883H84.9662C71.4811 77.8 51.1014 77.8 50.8986 77.8ZM18.5547 71.3167C26.1591 72.0258 50.1889 72.3297 51 72.3297C51.7098 72.3297 71.3797 72.3297 84.4593 71.3167C84.662 71.3167 84.8648 71.3167 85.0676 71.2154C86.8926 71.0127 89.7316 70.7089 92.3678 67.8724C94.1928 65.8464 95.3082 60.8825 95.5109 59.1604C95.6123 58.6539 96.4235 50.651 96.4235 42.8508V35.0505C96.4235 27.149 95.5109 19.2474 95.4095 18.7409C95.1054 16.3096 93.9901 11.8523 92.2664 10.1302C89.6302 7.19245 86.7913 6.98983 84.9662 6.78722C84.7634 6.78722 84.5606 6.78725 84.3579 6.68594C71.0756 5.67292 51.1014 5.67292 50.8986 5.67292H50.7972C50.5944 5.67292 30.5189 5.67292 17.338 6.68594C17.1352 6.68594 16.9324 6.68592 16.7296 6.78722C14.9046 6.98983 12.0656 7.29375 9.42944 10.1302C7.60439 12.1562 6.48908 17.1201 6.28629 18.8422C6.1849 19.45 5.37376 27.3515 5.37376 35.1518V42.9521C5.37376 50.7523 6.28629 58.7552 6.28629 59.2617C6.59047 61.693 7.70578 66.1503 9.42944 67.8724C11.7614 70.5063 14.8032 70.9114 17.0338 71.2154C17.6422 71.1141 18.0477 71.2154 18.5547 71.3167Z" fill="#ffffff"/>
    <path d="M38.8337 20.767V56.9318L69.0484 38.9L38.8337 20.767Z" fill="#ffffff"/>
  </svg>
  <svg id="flag" viewBox="0 0 47 81">
    <path d="M7.76611 3.86183V42.3812L47 23.072L7.76611 3.86183ZM0 80.9005V0H3.83261V80.9005H0Z" fill="#63D1BB"/>
    <path d="M3.83262 0.0996094H0V81.0001H3.83262V0.0996094Z" fill="#231F20"/>
  </svg>
</svg>
